<svg width="16" height="16" viewBox="0 0 16 16" fill="none" xmlns="http://www.w3.org/2000/svg">
  <path d="M5.33354 8C5.33354 7.47258 5.48995 6.95701 5.78297 6.51848C6.076 6.07995 6.4925 5.73815 6.97978 5.53632C7.46707 5.33449 8.00327 5.28168 8.52057 5.38457C9.03788 5.48747 9.51305 5.74144 9.88601 6.11438C10.259 6.48732 10.5129 6.96248 10.6158 7.47976C10.7187 7.99704 10.6659 8.53322 10.4641 9.02049C10.2622 9.50776 9.92044 9.92424 9.48189 10.2173C9.04334 10.5103 8.52775 10.6667 8.00031 10.6667C7.29304 10.6667 6.61474 10.3857 6.11462 9.88562C5.6145 9.38552 5.33354 8.70724 5.33354 8ZM3.89176 8C3.89176 8.81245 4.13268 9.60666 4.58406 10.2822C5.03545 10.9577 5.67701 11.4842 6.42764 11.7952C7.17827 12.1061 8.00424 12.1875 8.80112 12.029C9.59799 11.8706 10.33 11.4794 10.9045 10.9049C11.4791 10.3304 11.8704 9.59853 12.0289 8.8017C12.1875 8.00488 12.1062 7.17893 11.7954 6.42829C11.4845 5.67766 10.958 5.03606 10.2825 4.58462C9.607 4.13318 8.8128 3.89217 8.00031 3.89208C7.46083 3.89206 6.92662 3.9983 6.42819 4.20473C5.92977 4.41117 5.47689 4.71375 5.09541 5.09521C4.71394 5.47667 4.41134 5.92954 4.2049 6.42794C3.99846 6.92635 3.89221 7.46053 3.89223 8M11.3102 3.72925C11.3102 3.91912 11.3664 4.10475 11.4719 4.26265C11.5773 4.42056 11.7272 4.54365 11.9026 4.61637C12.078 4.68909 12.271 4.70816 12.4573 4.67118C12.6435 4.6342 12.8146 4.54283 12.9489 4.40861C13.0832 4.2744 13.1747 4.10337 13.2118 3.91716C13.2489 3.73095 13.23 3.53792 13.1574 3.36248C13.0848 3.18704 12.9618 3.03707 12.8039 2.93153C12.6461 2.82599 12.4605 2.76963 12.2706 2.76957C12.0161 2.76969 11.772 2.87083 11.592 3.05077C11.412 3.23071 11.3108 3.47474 11.3106 3.72925M4.76881 14.5118C4.26146 14.506 3.75889 14.413 3.28311 14.2367C2.93562 14.1083 2.62123 13.9038 2.36292 13.6383C2.09697 13.3805 1.89243 13.0663 1.76446 12.7187C1.58789 12.243 1.4946 11.7405 1.48869 11.2331C1.44994 10.3898 1.44162 10.1365 1.44162 8.00016C1.44162 5.86384 1.44994 5.61114 1.48869 4.76722C1.49506 4.25994 1.58812 3.75748 1.76383 3.28157C1.89227 2.9341 2.09674 2.61972 2.36229 2.36141C2.62015 2.09533 2.93468 1.89078 3.28248 1.76298C3.75843 1.58651 4.26123 1.49338 4.76881 1.48769C5.61214 1.44894 5.86548 1.44063 8.00031 1.44063C10.1351 1.44063 10.3894 1.44894 11.2334 1.48769C11.7407 1.49406 12.2432 1.58711 12.7191 1.76282C13.0667 1.89102 13.3811 2.09551 13.6393 2.36125C13.905 2.61939 14.1095 2.93382 14.2377 3.28141C14.4141 3.75715 14.5072 4.25972 14.5129 4.76706C14.5516 5.61098 14.5599 5.86369 14.5599 8C14.5599 10.1363 14.5523 10.389 14.5129 11.2329C14.5068 11.7402 14.4137 12.2427 14.2377 12.7186C14.1046 13.0636 13.9007 13.3769 13.6391 13.6383C13.3776 13.8998 13.0642 14.1036 12.7191 14.2365C12.2433 14.4129 11.7407 14.506 11.2334 14.5117C10.3901 14.5504 10.1367 14.5587 8.00031 14.5587C5.86392 14.5587 5.6112 14.5512 4.76881 14.5118ZM4.70199 0.0484706C4.03833 0.0615993 3.38172 0.187252 2.76011 0.420078C2.22622 0.620967 1.74255 0.935834 1.3428 1.34275C0.935452 1.74211 0.62046 2.2258 0.419938 2.75984C0.18716 3.38149 0.061555 4.03813 0.0484725 4.7018C0.0090984 5.55482 0 5.82745 0 8C0 10.1725 0.0090984 10.4452 0.0484725 11.2982C0.0616169 11.9618 0.187274 12.6184 0.420095 13.24C0.62061 13.7741 0.93554 14.2578 1.3428 14.6573C1.74269 15.064 2.22625 15.3788 2.75995 15.5801C3.38159 15.8128 4.03819 15.9385 4.70183 15.9517C5.55535 15.9904 5.82752 16.0002 8.00016 16.0002C10.1728 16.0002 10.4454 15.9911 11.2985 15.9517C11.9621 15.9385 12.6187 15.8129 13.2404 15.5801C13.7719 15.3746 14.2547 15.0603 14.6577 14.6573C15.0607 14.2543 15.375 13.7716 15.5805 13.24C15.8137 12.6185 15.9393 11.9619 15.9522 11.2982C15.9909 10.4445 15.9992 10.1725 15.9992 8C15.9992 5.82745 15.9901 5.55482 15.9522 4.7018C15.939 4.03817 15.8134 3.38158 15.5805 2.76C15.3793 2.22628 15.0645 1.74269 14.6578 1.34275C14.2585 0.935637 13.7751 0.620685 13.2413 0.419922C12.6197 0.186976 11.963 0.0613707 11.2993 0.0484706C10.4464 0.00972549 10.1736 0 8.00031 0C5.82705 0 5.55473 0.00909804 4.70136 0.0484706" fill="url(#paint0_radial_432_811)"/>
  <path d="M5.33354 8C5.33354 7.47258 5.48995 6.95701 5.78297 6.51848C6.076 6.07995 6.4925 5.73815 6.97978 5.53632C7.46707 5.33449 8.00327 5.28168 8.52057 5.38457C9.03788 5.48747 9.51305 5.74144 9.88601 6.11438C10.259 6.48732 10.5129 6.96248 10.6158 7.47976C10.7187 7.99704 10.6659 8.53322 10.4641 9.02049C10.2622 9.50776 9.92044 9.92424 9.48189 10.2173C9.04334 10.5103 8.52775 10.6667 8.00031 10.6667C7.29304 10.6667 6.61474 10.3857 6.11462 9.88562C5.6145 9.38552 5.33354 8.70724 5.33354 8ZM3.89176 8C3.89176 8.81245 4.13268 9.60666 4.58406 10.2822C5.03545 10.9577 5.67701 11.4842 6.42764 11.7952C7.17827 12.1061 8.00424 12.1875 8.80112 12.029C9.59799 11.8706 10.33 11.4794 10.9045 10.9049C11.4791 10.3304 11.8704 9.59853 12.0289 8.8017C12.1875 8.00488 12.1062 7.17893 11.7954 6.42829C11.4845 5.67766 10.958 5.03606 10.2825 4.58462C9.607 4.13318 8.8128 3.89217 8.00031 3.89208C7.46083 3.89206 6.92662 3.9983 6.42819 4.20473C5.92977 4.41117 5.47689 4.71375 5.09541 5.09521C4.71394 5.47667 4.41134 5.92954 4.2049 6.42794C3.99846 6.92635 3.89221 7.46053 3.89223 8M11.3102 3.72925C11.3102 3.91912 11.3664 4.10475 11.4719 4.26265C11.5773 4.42056 11.7272 4.54365 11.9026 4.61637C12.078 4.68909 12.271 4.70816 12.4573 4.67118C12.6435 4.6342 12.8146 4.54283 12.9489 4.40861C13.0832 4.2744 13.1747 4.10337 13.2118 3.91716C13.2489 3.73095 13.23 3.53792 13.1574 3.36248C13.0848 3.18704 12.9618 3.03707 12.8039 2.93153C12.6461 2.82599 12.4605 2.76963 12.2706 2.76957C12.0161 2.76969 11.772 2.87083 11.592 3.05077C11.412 3.23071 11.3108 3.47474 11.3106 3.72925M4.76881 14.5118C4.26146 14.506 3.75889 14.413 3.28311 14.2367C2.93562 14.1083 2.62123 13.9038 2.36292 13.6383C2.09697 13.3805 1.89243 13.0663 1.76446 12.7187C1.58789 12.243 1.4946 11.7405 1.48869 11.2331C1.44994 10.3898 1.44162 10.1365 1.44162 8.00016C1.44162 5.86384 1.44994 5.61114 1.48869 4.76722C1.49506 4.25994 1.58812 3.75748 1.76383 3.28157C1.89227 2.9341 2.09674 2.61972 2.36229 2.36141C2.62015 2.09533 2.93468 1.89078 3.28248 1.76298C3.75843 1.58651 4.26123 1.49338 4.76881 1.48769C5.61214 1.44894 5.86548 1.44063 8.00031 1.44063C10.1351 1.44063 10.3894 1.44894 11.2334 1.48769C11.7407 1.49406 12.2432 1.58711 12.7191 1.76282C13.0667 1.89102 13.3811 2.09551 13.6393 2.36125C13.905 2.61939 14.1095 2.93382 14.2377 3.28141C14.4141 3.75715 14.5072 4.25972 14.5129 4.76706C14.5516 5.61098 14.5599 5.86369 14.5599 8C14.5599 10.1363 14.5523 10.389 14.5129 11.2329C14.5068 11.7402 14.4137 12.2427 14.2377 12.7186C14.1046 13.0636 13.9007 13.3769 13.6391 13.6383C13.3776 13.8998 13.0642 14.1036 12.7191 14.2365C12.2433 14.4129 11.7407 14.506 11.2334 14.5117C10.3901 14.5504 10.1367 14.5587 8.00031 14.5587C5.86392 14.5587 5.6112 14.5512 4.76881 14.5118ZM4.70199 0.0484706C4.03833 0.0615993 3.38172 0.187252 2.76011 0.420078C2.22622 0.620967 1.74255 0.935834 1.3428 1.34275C0.935452 1.74211 0.62046 2.2258 0.419938 2.75984C0.18716 3.38149 0.061555 4.03813 0.0484725 4.7018C0.0090984 5.55482 0 5.82745 0 8C0 10.1725 0.0090984 10.4452 0.0484725 11.2982C0.0616169 11.9618 0.187274 12.6184 0.420095 13.24C0.62061 13.7741 0.93554 14.2578 1.3428 14.6573C1.74269 15.064 2.22625 15.3788 2.75995 15.5801C3.38159 15.8128 4.03819 15.9385 4.70183 15.9517C5.55535 15.9904 5.82752 16.0002 8.00016 16.0002C10.1728 16.0002 10.4454 15.9911 11.2985 15.9517C11.9621 15.9385 12.6187 15.8129 13.2404 15.5801C13.7719 15.3746 14.2547 15.0603 14.6577 14.6573C15.0607 14.2543 15.375 13.7716 15.5805 13.24C15.8137 12.6185 15.9393 11.9619 15.9522 11.2982C15.9909 10.4445 15.9992 10.1725 15.9992 8C15.9992 5.82745 15.9901 5.55482 15.9522 4.7018C15.939 4.03817 15.8134 3.38158 15.5805 2.76C15.3793 2.22628 15.0645 1.74269 14.6578 1.34275C14.2585 0.935637 13.7751 0.620685 13.2413 0.419922C12.6197 0.186976 11.963 0.0613707 11.2993 0.0484706C10.4464 0.00972549 10.1736 0 8.00031 0C5.82705 0 5.55473 0.00909804 4.70136 0.0484706" fill="url(#paint1_radial_432_811)"/>
  <defs>
    <radialGradient id="paint0_radial_432_811" cx="0" cy="0" r="1" gradientUnits="userSpaceOnUse" gradientTransform="translate(2.12573 16.0756) scale(20.8866 20.8858)">
      <stop offset="0.09" stop-color="#FA8F21"/>
      <stop offset="0.78" stop-color="#D82D7E"/>
    </radialGradient>
    <radialGradient id="paint1_radial_432_811" cx="0" cy="0" r="1" gradientUnits="userSpaceOnUse" gradientTransform="translate(9.70375 16.7923) scale(16.4615 16.4609)">
      <stop offset="0.64" stop-color="#8C3AAA" stop-opacity="0"/>
      <stop offset="1" stop-color="#8C3AAA"/>
    </radialGradient>
  </defs>
</svg>
