<svg width="16" height="16" viewBox="0 0 16 16" xmlns="http://www.w3.org/2000/svg">
  <path fill="#007EBB" d="M16 16H12.4636V10.3752C12.4636 8.9032 11.9109 7.898 10.6942 7.898C9.764 7.898 9.24655 8.5764 9.00582 9.23C8.91527 9.4644 8.92945 9.7912 8.92945 10.118V16H5.42618C5.42618 16 5.47127 6.0364 5.42618 5.1308H8.92945V6.8368C9.13673 6.0908 10.256 5.0264 12.0422 5.0264C14.2585 5.0264 16 6.5896 16 9.9564V16ZM1.88364 3.7712H1.86073C0.732 3.7712 0 2.9404 0 1.8872C0 0.8136 0.753455 0 1.90509 0C3.05564 0 3.76327 0.8116 3.78545 1.884C3.78545 2.9372 3.05564 3.7712 1.88364 3.7712ZM0.403636 5.1308H3.52218V16H0.403636V5.1308Z" />
</svg>
