<svg width="16" height="16" viewBox="0 0 16 16" xmlns="http://www.w3.org/2000/svg">
  <path fill="#FF0000" d="M15.6655 4.12424C15.4814 3.43152 14.9394 2.8859 14.251 2.70077C13.0034 2.36426 8 2.36426 8 2.36426C8 2.36426 2.99662 2.36426 1.74903 2.70077C1.06058 2.8859 0.518389 3.43152 0.334461 4.12424C-3.97364e-08 5.38006 0 7.99991 0 7.99991C0 7.99991 0 10.6198 0.33429 11.8756C0.518217 12.5683 1.06041 13.1139 1.74885 13.2991C2.99662 13.6356 8 13.6356 8 13.6356C8 13.6356 13.0034 13.6356 14.2511 13.2991C14.9396 13.1138 15.4816 12.5683 15.6657 11.8756C16 10.6198 16 7.99991 16 7.99991C16 7.99991 16 5.38006 15.6655 4.12424Z" />
  <path fill="#F1F1F1" d="M6.33609 5.58133V10.4186L10.5884 8.00013L6.33609 5.58133Z" />
</svg>
