<svg width="17" height="16" viewBox="0 0 17 16" fill="#FB923C" xmlns="http://www.w3.org/2000/svg">
  <path d="M8.29452 0.0649471C8.32691 -0.0216875 8.44945 -0.0216872 8.48185 0.0649475L10.5868 5.69438C10.6009 5.73196 10.636 5.75751 10.6761 5.75926L16.6805 6.02163C16.7729 6.02566 16.8108 6.14221 16.7384 6.19979L12.035 9.94134C12.0036 9.96632 11.9901 10.0076 12.0009 10.0463L13.6068 15.8379C13.6315 15.927 13.5324 15.9991 13.4552 15.948L8.44337 12.631C8.40991 12.6088 8.36645 12.6088 8.33299 12.631L3.32113 15.948C3.244 15.9991 3.14486 15.927 3.16958 15.8379L4.77551 10.0463C4.78623 10.0076 4.7728 9.96632 4.7414 9.94134L0.0379649 6.19979C-0.034419 6.14221 0.00344896 6.02566 0.0958539 6.02163L6.10023 5.75926C6.14032 5.75751 6.17548 5.73196 6.18954 5.69438L8.29452 0.0649471Z" />
</svg>
